<svg width="20" height="20" viewBox="0 0 20 20" fill="none" xmlns="http://www.w3.org/2000/svg">
<g clip-path="url(#clip0_269_520)">
<path d="M17.9992 4.54334C17.4 4.80822 16.7645 4.98218 16.1138 5.05946C16.7997 4.64957 17.313 4.00448 17.5581 3.24441C16.9144 3.62718 16.2088 3.89544 15.4733 4.04055C14.4575 2.95444 12.8377 2.68678 11.5261 3.3883C10.2145 4.08982 9.53896 5.58511 9.87991 7.03218C7.24021 6.89997 4.78081 5.65402 3.11382 3.60444C2.82205 4.10522 2.66873 4.67451 2.66955 5.25399C2.66955 6.39134 3.24882 7.39613 4.12951 7.98442C3.60833 7.96802 3.09861 7.82737 2.64286 7.57418L2.64286 7.61497C2.64286 9.17602 3.74391 10.5215 5.27563 10.8316C4.79203 10.9625 4.28497 10.9819 3.79278 10.8882C4.22224 12.2249 5.45483 13.1408 6.8595 13.1668C5.48426 14.2461 3.73606 14.7349 2 14.5254C3.50055 15.4897 5.24733 16.0017 7.0314 16C13.0699 16 16.3721 11.0011 16.3721 6.66587C16.3721 6.52468 16.3681 6.38193 16.3619 6.24231C17.0046 5.77808 17.5593 5.20302 18 4.54412L17.9992 4.54334Z" fill="#687497"/>
</g>
<defs>
<clipPath id="clip0_269_520">
<rect width="20" height="20" fill="white"/>
</clipPath>
</defs>
</svg>
