<svg width="21" height="20" viewBox="0 0 21 20" fill="none" xmlns="http://www.w3.org/2000/svg">
<path fill-rule="evenodd" clip-rule="evenodd" d="M18 10C18 10 18 7.21 17.6344 5.8735C17.4336 5.137 16.84 4.5565 16.084 4.357C14.7168 4 10 4 10 4C10 4 5.2856 4 3.916 4.357C3.1632 4.5535 2.5688 5.13475 2.3656 5.8735C2 7.21 2 10 2 10C2 10 2 12.79 2.3656 14.1265C2.5664 14.863 3.16 15.4435 3.916 15.643C5.2856 16 10 16 10 16C10 16 14.7168 16 16.084 15.643C16.8368 15.4465 17.4312 14.8652 17.6344 14.1265C18 12.79 18 10 18 10ZM13.2 10L8.4 12.625V7.375L13.2 10Z" fill="#687497"/>
</svg>
