<svg width="686" height="488" viewBox="0 0 686 488" fill="none" xmlns="http://www.w3.org/2000/svg">
<g clip-path="url(#clip0_13_158)">
<g clip-path="url(#clip1_13_158)">
<g clip-path="url(#clip2_13_158)">
<path d="M345.997 308.261C343.319 308.261 341.005 307.676 339.055 306.506C337.131 305.31 335.636 303.659 334.57 301.553C333.504 299.421 332.971 296.951 332.971 294.143C332.971 291.361 333.504 288.917 334.57 286.811C335.636 284.679 337.131 283.015 339.055 281.819C341.005 280.623 343.319 280.025 345.997 280.025C349.117 280.025 351.652 280.779 353.602 282.287C355.578 283.769 356.839 285.849 357.385 288.527H353.758C353.342 286.837 352.484 285.485 351.184 284.471C349.91 283.431 348.181 282.911 345.997 282.911C344.047 282.911 342.344 283.366 340.888 284.276C339.432 285.16 338.301 286.447 337.495 288.137C336.715 289.801 336.325 291.803 336.325 294.143C336.325 296.483 336.715 298.498 337.495 300.188C338.301 301.852 339.432 303.139 340.888 304.049C342.344 304.933 344.047 305.375 345.997 305.375C348.181 305.375 349.91 304.881 351.184 303.893C352.484 302.879 353.342 301.54 353.758 299.876H357.385C356.839 302.502 355.578 304.556 353.602 306.038C351.652 307.52 349.117 308.261 345.997 308.261ZM361.664 297.848V295.079H369.113V287.981H372.038V295.079H379.487V297.848H372.038V304.985H369.113V297.848H361.664ZM347.629 348.848V346.079H355.078V338.981H358.003V346.079H365.452V348.848H358.003V355.985H355.078V348.848H347.629Z" fill="#C8C8D6"/>
</g>
<path opacity="0.19" fill-rule="evenodd" clip-rule="evenodd" d="M122.92 133.543C122.371 134.45 122.341 135.577 122.899 136.477L124.8 139.541L114.805 145.741L112.91 142.679C112.352 141.779 111.333 141.291 110.278 141.381C109.696 141.431 109.109 141.45 108.521 141.438C107.465 141.414 106.482 141.966 105.984 142.897L104.281 146.069L93.914 140.508L95.615 137.337C96.1145 136.405 96.0302 135.282 95.4269 134.415C95.0912 133.932 94.781 133.433 94.5001 132.92C93.9921 131.991 93.0226 131.413 91.9638 131.446L88.3651 131.561L88 119.805L91.6121 119.696C92.6709 119.665 93.5928 119.015 94.0446 118.058C94.168 117.798 94.2974 117.539 94.4342 117.283C94.5722 117.028 94.715 116.778 94.8628 116.531C95.4086 115.629 95.4404 114.508 94.8848 113.612L92.9749 110.528L102.969 104.33L104.872 107.396C105.43 108.295 106.45 108.782 107.505 108.69C108.086 108.64 108.67 108.621 109.256 108.633C110.311 108.655 111.292 108.103 111.791 107.174L113.492 104L123.861 109.561L122.159 112.735C121.661 113.664 121.744 114.786 122.346 115.653C122.68 116.134 122.988 116.631 123.266 117.143C123.774 118.074 124.744 118.652 125.803 118.619L129.41 118.509L129.775 130.264L126.165 130.377C125.11 130.408 124.192 131.057 123.741 132.012C123.618 132.272 123.487 132.532 123.348 132.791C123.211 133.046 123.069 133.296 122.92 133.543ZM100.397 120.482C97.8827 125.17 99.6472 131.016 104.336 133.531C109.024 136.046 114.863 134.277 117.377 129.588C119.892 124.9 118.132 119.065 113.442 116.551C108.754 114.037 102.911 115.792 100.397 120.482Z" fill="#C8C8D6"/>
<path fill-rule="evenodd" clip-rule="evenodd" d="M289.852 54.4814C289.803 55.4192 290.251 56.3119 291.063 56.7808L293.829 58.3756L288.625 67.3961L285.864 65.8013C285.052 65.3324 284.053 65.3776 283.267 65.8892C282.834 66.1725 282.383 66.4326 281.918 66.6683C281.085 67.092 280.549 67.9346 280.549 68.8688V72.0572H270.132V68.8688C270.132 67.9346 269.596 67.092 268.762 66.6683C268.298 66.4326 267.847 66.1725 267.413 65.8892C266.627 65.3776 265.629 65.3324 264.817 65.8013L262.056 67.3961L256.852 58.3756L259.625 56.7795C260.438 56.3106 260.885 55.4192 260.838 54.4814C260.824 54.2274 260.818 53.9722 260.818 53.7145C260.818 53.4581 260.824 53.2029 260.838 52.9489C260.885 52.0159 260.441 51.1281 259.632 50.6604L256.852 49.0546L262.056 40.0341L264.825 41.6301C265.637 42.0978 266.637 42.0527 267.421 41.5386C267.853 41.2565 268.301 40.9964 268.764 40.7607C269.596 40.337 270.132 39.4956 270.132 38.5614V35.373H280.549V38.5614C280.549 39.4956 281.084 40.337 281.917 40.7607C282.378 40.9964 282.827 41.2565 283.259 41.5386C284.044 42.0527 285.043 42.0978 285.855 41.6301L288.625 40.0341L293.829 49.0546L291.059 50.6519C290.25 51.1196 289.804 52.0086 289.852 52.9427C289.864 53.198 289.871 53.4556 289.871 53.7145C289.871 53.9722 289.864 54.2274 289.852 54.4814ZM266.809 53.7145C266.809 58.4256 270.634 62.2502 275.345 62.2502C280.056 62.2502 283.871 58.4256 283.871 53.7145C283.871 49.0034 280.056 45.1885 275.345 45.1885C270.634 45.1885 266.809 49.0034 266.809 53.7145Z" fill="#F5F5F7"/>
<path opacity="0.19" fill-rule="evenodd" clip-rule="evenodd" d="M471 427.108C470.952 428.046 471.399 428.939 472.213 429.408L474.977 431.003L469.773 440.023L467.012 438.428C466.2 437.959 465.202 438.005 464.417 438.516C463.982 438.799 463.532 439.06 463.067 439.295C462.233 439.719 461.697 440.562 461.697 441.496V444.684H451.28V441.496C451.28 440.562 450.744 439.719 449.911 439.295C449.446 439.06 448.996 438.799 448.562 438.516C447.776 438.005 446.778 437.959 445.965 438.428L443.204 440.023L438 431.003L440.773 429.407C441.586 428.938 442.035 428.046 441.986 427.108C441.974 426.854 441.966 426.599 441.966 426.341C441.966 426.085 441.974 425.83 441.986 425.576C442.033 424.643 441.589 423.755 440.781 423.287L438 421.682L443.204 412.661L445.974 414.257C446.786 414.726 447.785 414.68 448.57 414.166C449.002 413.883 449.451 413.623 449.912 413.388C450.745 412.964 451.28 412.123 451.28 411.188V408H461.697V411.188C461.697 412.123 462.233 412.964 463.065 413.388C463.528 413.623 463.976 413.883 464.407 414.166C465.192 414.68 466.192 414.726 467.004 414.257L469.773 412.661L474.977 421.682L472.208 423.279C471.398 423.747 470.952 424.636 471 425.57C471.013 425.825 471.02 426.083 471.02 426.341C471.02 426.599 471.013 426.854 471 427.108ZM447.958 426.341C447.958 431.053 451.782 434.877 456.493 434.877C461.204 434.877 465.02 431.053 465.02 426.341C465.02 421.63 461.204 417.816 456.493 417.816C451.782 417.816 447.958 421.63 447.958 426.341Z" fill="#C8C8D6"/>
<path d="M579.433 252.052C579.433 252.052 557.409 237.393 549.78 209.059C542.15 180.725 537.987 120.351 537.987 120.351C537.987 120.351 580.555 171.793 585.522 202.896C590.491 234 579.433 252.052 579.433 252.052Z" fill="#2BD67B"/>
<path d="M608.142 272.23C608.142 272.23 604.56 240.387 619.312 214.307C634.063 188.227 683.801 170.766 683.801 170.766C683.801 170.766 653.994 227.331 640.232 243.487C626.469 259.645 608.142 272.23 608.142 272.23Z" fill="#2BD67B"/>
<path d="M606.532 348.247C606.532 348.247 609.203 321.26 618.023 304.374C626.843 287.488 658.501 263.643 674.444 257.267C674.444 257.267 654.57 333.815 606.532 348.247Z" fill="#2BD67B"/>
<path d="M575.575 325.063C575.575 325.063 552.661 310.989 540.262 285.772C527.864 260.554 525.28 224.897 525.28 224.897C525.28 224.897 580.921 269.884 575.575 325.063Z" fill="#2BD67B"/>
<path d="M597.676 429.709C592.656 409.252 590.575 388.119 590.373 367.033C590.224 356.48 590.866 345.922 591.941 335.421C593.04 324.917 594.738 314.469 597.118 304.169C599.549 293.886 602.649 283.746 606.429 273.887L609.268 266.502C610.243 264.051 611.307 261.636 612.323 259.201L613.862 255.557C614.397 254.351 614.958 253.156 615.517 251.962C616.655 249.581 617.731 247.172 618.918 244.815C623.595 235.356 628.814 226.157 634.664 217.376C636.147 215.194 637.694 213.055 639.241 210.921C640.851 208.83 642.422 206.713 644.131 204.703C647.499 200.655 651.04 196.711 655.104 193.357C653.145 195.112 651.334 197.023 649.616 199.009C648.733 199.981 647.897 200.993 647.064 202.008C646.214 203.008 645.404 204.041 644.612 205.088C642.978 207.143 641.484 209.304 639.954 211.434C638.485 213.607 637.018 215.783 635.617 218C629.995 226.858 624.982 236.096 620.529 245.594C619.397 247.958 618.375 250.377 617.293 252.764L615.682 256.352L614.176 259.986C613.183 262.414 612.142 264.822 611.188 267.264L608.414 274.629C604.725 284.442 601.733 294.489 599.386 304.697C594.517 325.081 592.419 346.071 592.159 367.037C592.025 377.528 592.435 388.031 593.351 398.492C594.216 408.958 595.577 419.398 597.676 429.709Z" fill="#101C3D"/>
<path d="M558.071 172.87C561.357 182.333 564.303 191.908 567.218 201.491C570.046 211.102 572.754 220.749 575.275 230.449C576.525 235.302 577.778 240.156 578.879 245.047L580.557 252.376L582.123 259.733C584.112 269.563 586.013 279.423 587.272 289.401C588.496 299.364 589.443 309.342 590.252 319.331C591.027 329.322 591.792 339.313 592.258 349.321C592.76 359.325 593.187 369.333 593.521 379.342C593.772 389.354 594.041 399.366 594.048 409.381C593.512 399.381 593.018 389.384 592.38 379.394C591.816 369.4 591.187 359.412 590.469 349.431C589.025 329.476 587.526 309.508 584.963 289.695C582.477 269.894 578.147 250.335 573.543 230.882C571.24 221.148 568.723 211.463 566.126 201.8C563.581 192.122 560.857 182.489 558.071 172.87Z" fill="#101C3D"/>
<path d="M641.818 291.99C636.971 299.541 632.204 307.124 627.464 314.716C622.752 322.325 618.094 329.96 613.657 337.717C609.198 345.459 604.951 353.319 601.137 361.379C599.269 365.423 597.5 369.518 596.051 373.726C594.574 377.918 593.42 382.255 593.268 386.748C593.121 384.514 593.169 382.236 593.556 380.012L593.809 378.336L594.162 376.681L594.521 375.024L594.959 373.389C596.168 369.037 597.731 364.794 599.475 360.64C601.218 356.485 603.188 352.434 605.201 348.41C607.252 344.406 609.426 340.469 611.638 336.557C613.899 332.674 616.207 328.82 618.585 325.01C620.992 321.219 623.415 317.439 625.944 313.73C630.956 306.284 636.237 299.018 641.818 291.99Z" fill="#101C3D"/>
<path d="M548.954 266.829C554.589 276.661 559.776 286.747 564.618 296.997C569.477 307.24 573.968 317.663 578.054 328.251C582.096 338.852 585.759 349.625 588.523 360.656C589.901 366.17 591.052 371.747 591.828 377.382C592.54 383.017 592.949 388.735 592.401 394.384C592.421 388.718 591.787 383.095 590.7 377.562C589.662 372.022 588.283 366.552 586.766 361.124C585.229 355.701 583.516 350.324 581.676 344.992C579.869 339.648 577.915 334.351 575.88 329.085C573.889 323.803 571.76 318.57 569.6 313.35C567.464 308.12 565.215 302.935 562.969 297.747C558.419 287.397 553.789 277.073 548.954 266.829Z" fill="#101C3D"/>
<path d="M620.157 363.036L619.761 369.362L619.738 369.607L619.633 371.226V371.343L619.621 371.471L619.516 373.09L619.505 373.347L619.4 374.954L619.388 375.199L618.526 388.818L618.503 389.202L618.41 390.682L618.386 391.066L618.351 391.614L618.281 392.546L618.258 392.93L618.165 394.41L618.142 394.794L615.031 443.923H570.143L567.079 395.528L567.033 394.911L566.963 393.676L566.916 393.047L566.846 391.812L566.823 391.614L566.8 391.183L566.718 389.948L566.683 389.319L565.728 374.255L565.705 373.824L565.611 372.391L565.576 371.937L565.542 371.343L565.495 370.539L565.46 370.108L565.378 368.652L565.344 368.221L565.017 363.036H620.157Z" fill="#416FF4"/>
<path d="M619.633 371.342L619.621 371.47L619.516 373.09L619.505 373.346L619.4 374.954L619.388 375.199L618.526 388.818L618.503 389.202L618.409 390.681L618.386 391.066L618.351 391.614H566.823L566.799 391.182L566.718 389.948L566.683 389.318L565.728 374.255L565.704 373.824L565.611 372.391L565.576 371.937L565.541 371.342H619.633Z" fill="#101C3D"/>
<rect x="560.797" y="360.153" width="63.5806" height="15.6646" fill="#416FF4"/>
</g>
<g clip-path="url(#clip3_13_158)">
<g clip-path="url(#clip4_13_158)">
<path d="M389.01 89.0818C385.862 91.6901 382.759 93.7233 379.698 95.2595C384.588 86.4197 383.227 66.8181 382.682 69.6352C380.069 83.1043 372.085 98.0107 368.905 98.8277C368.883 98.8277 368.872 98.8387 368.85 98.8387C360.29 100.21 352.415 98.1206 345.783 94.6734C345.783 94.6624 345.794 94.6404 345.804 94.6294C352.154 84.6076 351.294 64.6628 350.88 65.8888C346.392 79.049 336.546 86.9497 334.804 86.9827H334.793C328.15 80.9942 324.544 74.9276 325.449 74.2755C332.016 69.5241 337.374 57.6131 342.156 45.0489V45.0391C346.882 32.6519 351.042 19.6578 355.247 12.287C355.236 12.2761 355.247 12.2761 355.247 12.2651C355.258 12.2431 355.269 12.2321 355.291 12.2101C355.411 12.0001 355.53 11.801 355.65 11.602C364.276 -2.70727 377.138 -0.221042 385.166 3.85633C412.437 17.7016 393.062 85.7127 389.01 89.0818Z" fill="#101C3D"/>
<path d="M366.237 3.25411C360.886 4.68161 356.601 9.75421 353.913 14.4019C350.343 20.5784 348.071 27.5217 345.165 34.0304C339.423 46.8865 332.077 58.7632 322.711 69.2369C322.503 69.4689 322.81 69.7584 323.042 69.5727C333.26 61.3887 340.093 49.8722 345.621 38.0772C348.448 32.0473 350.621 25.7608 353.282 19.6637C354.738 16.3264 356.452 13.083 358.748 10.2561C360.979 7.50976 363.579 5.83803 366.614 4.16141C367.107 3.8891 366.768 3.11245 366.237 3.25411Z" fill="#101C3D"/>
<path d="M389.87 48.8358C380.724 53.3967 374.336 97.934 369.151 100.393C360.281 104.6 338.372 100.553 330.647 101.495C325.88 102.076 313.556 118.918 316.382 122.309C319.208 125.7 370.662 131.949 383.453 126.284C390.684 123.081 397.147 92.1665 398.148 78.6022C399.149 65.0378 394.025 46.7635 389.87 48.8358Z" fill="#FFC7BE"/>
<path d="M388.017 126.631C387.609 127.167 387.19 127.621 386.759 128.018C378.277 135.776 325.712 133.702 323.079 131.431C320.434 129.147 322.019 125.617 322.019 125.617L335.323 102.621C335.323 102.621 337.199 99.044 341.719 99.2651C346.251 99.4861 364.857 101.805 368.945 99.8011C373.047 97.785 377.555 61.2743 388.401 49.0996C389.892 47.4218 391.314 47.3399 392.618 48.3425C396.428 51.2781 399.189 63.4992 399.468 72.7615C399.818 84.5626 395.694 116.763 388.017 126.631Z" fill="#2BD67B"/>
<path d="M338.159 99.7286L323.049 128.385C323.049 128.385 315.761 123.781 315.707 123.659C315.655 123.537 328.398 99.5308 329.008 99.2633C329.618 98.9971 338.159 99.7286 338.159 99.7286Z" fill="#2BD67B"/>
<path d="M323.48 127.822C325.932 123.551 336.447 105.444 338.18 100.329C338.241 100.147 337.989 99.9846 337.873 100.158C335.029 104.408 325.313 122.596 323.155 127.638C322.994 128.016 323.273 128.181 323.48 127.822Z" fill="#101C3D"/>
<path d="M388.017 126.63L382.798 73.7624L392.618 48.342C396.428 51.2776 399.189 63.4988 399.469 72.7611C399.818 84.5621 395.694 116.762 388.017 126.63Z" fill="#101C3D"/>
<path d="M390.989 45.9217C388.001 52.1812 380.704 79.4125 383.379 86.6636C386.089 94.0112 394.192 96.4986 394.192 96.4986C394.192 96.4986 400.221 126.265 403.894 129.373C407.567 132.482 447.32 133.498 462.014 107.049C464.84 101.962 443.74 63.5304 428.197 50.8135C416.649 41.3656 398.157 30.9078 390.989 45.9217Z" fill="#2BD67B"/>
<path d="M420.511 85.526C417.87 88.1013 415.538 90.7256 411.9 91.8917C408.234 93.0665 404.237 92.981 400.44 93.4194C400.33 93.4316 400.324 93.5952 400.44 93.5964C404.794 93.6221 409.371 94.1997 413.538 92.5792C416.797 91.3117 419.084 88.7424 420.976 85.885C421.165 85.5992 420.747 85.2964 420.511 85.526Z" fill="#101C3D"/>
<path d="M404.86 94.3962C402.049 94.5159 399.113 95.2437 396.386 95.9067C396.269 95.9361 396.29 96.1351 396.416 96.1241C399.215 95.8652 402.221 95.6039 404.916 94.8041C405.134 94.7393 405.102 94.3864 404.86 94.3962Z" fill="#101C3D"/>
<path d="M394.733 96.2557C394.728 96.2361 394.717 96.2251 394.711 96.2068C394.684 96.0725 394.604 95.9467 394.444 95.8869C388.206 93.5081 383.45 88.6773 383.205 81.7547C382.958 74.7075 383.884 70.6643 385.763 63.898C385.8 63.7588 385.604 63.71 385.55 63.8394C382.325 71.4898 381.652 81.2308 382.5 85.0823C383.762 90.8155 388.621 94.794 393.976 96.6C394.378 98.3694 394.654 100.213 395.203 101.94C395.268 102.14 395.577 102.109 395.577 101.889C395.574 100.017 395.124 98.0764 394.733 96.2557Z" fill="#101C3D"/>
<path d="M417.503 65.195L445.404 106.536L454.055 85.4452L417.503 65.195Z" fill="#101C3D"/>
<path d="M387.906 48.0783C387.906 48.0783 385.516 52.9836 385.18 54.1595C385.18 54.1595 388.356 59.7621 396.309 57.2197C404.261 54.6761 405.636 38.6719 405.636 38.6719C405.636 38.6719 399.906 37.4471 395.801 39.3618C391.696 41.2765 387.906 48.0783 387.906 48.0783Z" fill="#FFC7BE"/>
<path d="M394.552 55.2797C391.963 56.3079 388.945 50.328 387.906 48.0787C387.679 47.5585 387.543 47.2422 387.543 47.2422L387.385 47.0847L386.934 46.5987L379.393 38.6857L386.052 25.2117L387.057 23.347C387.057 23.347 389.194 25.9017 391.725 28.9985C391.861 29.1572 391.998 29.3147 392.121 29.4735C392.484 29.9033 392.845 30.3442 393.207 30.796C393.478 31.1232 393.749 31.4627 394.021 31.8242C394.303 32.1856 394.574 32.5483 394.858 32.9098C397.581 36.5268 400.068 40.4722 400.249 41.0034C400.655 42.2466 399.989 53.1208 394.552 55.2797Z" fill="#FFC7BE"/>
<path d="M387.906 48.0787C387.679 47.5585 387.543 47.2422 387.543 47.2422L387.385 47.0847L386.934 46.5987L379.393 38.6857L386.052 25.2117L387.057 23.347C387.057 23.347 389.194 25.9017 391.725 28.9985C392.777 33.1467 394.495 43.298 387.906 48.0787Z" fill="#101C3D"/>
<path d="M358.441 28.7215C363.147 47.505 375.65 46.0543 378.979 45.7881C382.757 45.4865 395.054 41.2454 392.314 22.0748C389.574 2.90547 379.353 -0.844637 370.833 0.827097C362.313 2.49883 353.734 9.93676 358.441 28.7215Z" fill="#FFC7BE"/>
<path d="M361.19 24.9935C361.605 24.8017 361.957 24.5563 362.349 24.3255C362.79 24.0642 363.168 23.9006 363.4 23.4182C363.524 23.1593 363.378 22.7625 363.138 22.6184C362.578 22.2825 361.958 22.4694 361.413 22.7612C360.822 23.08 360.449 23.4756 360.191 24.0947C359.942 24.6931 360.642 25.245 361.19 24.9935Z" fill="#101C3D"/>
<path d="M374.058 21.2278C373.61 21.3182 373.182 21.3279 372.729 21.3719C372.218 21.4207 371.816 21.5135 371.345 21.2595C371.092 21.124 370.976 20.7173 371.085 20.4597C371.339 19.8589 371.949 19.6428 372.561 19.5573C373.227 19.4657 373.762 19.5646 374.334 19.9126C374.889 20.2497 374.649 21.1081 374.058 21.2278Z" fill="#101C3D"/>
<path d="M373.122 26.6733C373.118 26.622 373.24 26.7038 373.253 26.7563C373.593 28.03 374.196 29.4331 375.465 29.5088C375.504 29.5112 375.52 29.5759 375.476 29.582C374.022 29.8055 373.24 27.9347 373.122 26.6733Z" fill="#101C3D"/>
<path d="M373.853 25.0164C375.838 24.2508 377.221 28.2769 375.382 28.9851C373.574 29.6824 372.189 25.6563 373.853 25.0164Z" fill="#101C3D"/>
<path d="M374.716 24.9561C375.146 25.0635 375.628 25.3468 376.067 25.243C376.574 25.1234 376.8 24.5739 376.98 24.0585C376.999 24.0048 377.046 24.028 377.065 24.0817C377.342 24.8486 377.317 25.7425 376.53 26.1418C375.812 26.5057 375.035 26.0087 374.576 25.2992C374.492 25.1685 374.543 24.9133 374.716 24.9561Z" fill="#101C3D"/>
<path d="M365.114 28.7906C365.088 28.7466 365.037 28.8834 365.057 28.9334C365.534 30.1631 365.875 31.6529 364.896 32.4613C364.865 32.4869 364.891 32.548 364.93 32.5272C366.235 31.8507 365.764 29.8786 365.114 28.7906Z" fill="#101C3D"/>
<path d="M363.547 27.8828C361.493 28.436 362.749 32.5024 364.652 31.9895C366.525 31.4852 365.267 27.4188 363.547 27.8828Z" fill="#101C3D"/>
<path d="M362.781 28.4124C362.526 28.7262 362.33 29.2159 361.953 29.36C361.517 29.5273 361.053 29.189 360.638 28.8556C360.595 28.8202 360.574 28.8642 360.589 28.9192C360.808 29.7031 361.315 30.4321 362.108 30.3515C362.831 30.2771 363.126 29.4552 363.071 28.6236C363.061 28.4698 362.884 28.2854 362.781 28.4124Z" fill="#101C3D"/>
<path d="M375.795 36.4505C375.615 36.8535 375.478 37.3639 375.048 37.5776C374.635 37.7815 374.059 37.7876 373.608 37.7901C373.563 37.7901 373.541 37.8475 373.58 37.8743C374.085 38.2187 374.871 38.248 375.4 37.9244C375.916 37.6081 376.002 37.0195 375.936 36.459C375.926 36.3809 375.821 36.3906 375.795 36.4505Z" fill="#101C3D"/>
<path d="M369.067 33.6555C369.067 33.6555 369.426 35.6106 369.717 36.4935C369.746 36.5753 369.971 36.5435 370.277 36.4629C370.293 36.4617 370.302 36.4654 370.311 36.4519C371.95 36.1808 373.339 35.1246 373.866 33.5395C373.897 33.4333 373.756 33.3796 373.693 33.4614C372.813 34.6996 371.602 35.3444 370.228 35.8243C370.085 35.6008 369.724 32.4552 369.581 32.4906C369.085 32.609 368.244 33.2513 367.727 33.6067C366.86 29.555 366.649 25.3982 365.724 21.3782C365.689 21.2354 365.475 21.2598 365.475 21.3978C365.387 25.7694 366.285 30.4537 367.072 34.6593C367.167 35.1856 368.763 33.923 369.067 33.6555Z" fill="#101C3D"/>
<path d="M370.124 35.7609C370.124 35.7609 371.268 36.7817 372.584 36.9625C373.068 37.0308 373.567 36.9942 374.048 36.7524C375.037 36.2603 374.863 35.2956 374.501 34.5141C374.205 33.8718 373.771 33.354 373.771 33.354C373.771 33.354 372.541 35.1014 370.124 35.7609Z" fill="#101C3D"/>
<path d="M390.486 24.3226C388.553 24.2664 386.512 19.2561 386.512 19.2561C386.512 19.2561 379.314 19.3257 372.821 15.2788C368.179 12.3872 366.285 9.05959 366.285 9.05959C365.18 20.1829 357.004 24.1785 357.004 24.1785C357.004 24.1785 354.128 16.0335 357.112 10.5347C360.097 5.03473 366.857 -1.86713 378.232 0.772967C378.232 0.772967 386.496 2.40563 389.731 8.37819C392.966 14.3495 393.114 24.3983 390.486 24.3226Z" fill="#101C3D"/>
<path d="M365.809 7.86736C365.798 7.79897 365.899 7.79043 365.914 7.85515C367.102 12.8618 371.828 15.8463 376.379 17.5046C380.633 19.0542 384.733 19.1653 389.185 18.8148C389.316 18.8051 389.333 18.9858 389.208 19.0139C384.686 20.0372 379.478 19.1958 375.248 17.4386C371.02 15.6814 366.597 12.7067 365.809 7.86736Z" fill="#101C3D"/>
<path d="M389.835 25.0566C389.835 25.0566 391.86 17.9643 394.944 18.4955C398.028 19.0266 397.88 28.3451 395.226 30.5285C392.573 32.7107 390.504 30.2941 390.504 30.2941L389.835 25.0566Z" fill="#FFC7BE"/>
<path d="M394.836 21.1664C394.883 21.1445 394.916 21.2104 394.88 21.2422C393.043 22.8431 392.602 25.2096 392.523 27.5322C392.886 26.5236 393.6 25.7933 394.919 26.1841C394.988 26.2036 394.965 26.3099 394.9 26.3172C393.961 26.432 393.383 26.8008 393.033 27.7044C392.787 28.3455 392.717 29.0708 392.614 29.7461C392.58 29.9721 392.2 29.9879 392.198 29.7437C392.197 29.7254 392.198 29.7058 392.198 29.6875C391.205 26.9852 392.008 22.4474 394.836 21.1664Z" fill="#101C3D"/>
<path d="M393.765 29.6763C395.677 29.0267 396.691 31.9977 394.775 32.6486C392.863 33.2982 391.85 30.3272 393.765 29.6763Z" fill="#F3F8FE"/>
<path d="M321.046 82.336C337.214 82.336 350.322 72.6526 350.322 60.7075C350.322 48.7624 337.214 39.079 321.046 39.079C304.877 39.079 291.769 48.7624 291.769 60.7075C291.769 72.6526 304.877 82.336 321.046 82.336Z" fill="#F7E36D"/>
<path d="M337.007 46.1422L351.328 42.498L346.041 54.3293L337.007 46.1422Z" fill="#F7E36D"/>
<path d="M310.513 60.7078C310.513 59.0312 309.154 57.6721 307.477 57.6721C305.8 57.6721 304.441 59.0312 304.441 60.7078C304.441 62.3844 305.8 63.7435 307.477 63.7435C309.154 63.7435 310.513 62.3844 310.513 60.7078Z" fill="#101C3D"/>
<path d="M324.082 60.7078C324.082 59.0312 322.722 57.6721 321.045 57.6721C319.368 57.6721 318.009 59.0312 318.009 60.7078C318.009 62.3844 319.368 63.7435 321.045 63.7435C322.722 63.7435 324.082 62.3844 324.082 60.7078Z" fill="#101C3D"/>
<path d="M337.65 60.7078C337.65 59.0312 336.291 57.6721 334.613 57.6721C332.936 57.6721 331.577 59.0312 331.577 60.7078C331.577 62.3844 332.936 63.7435 334.613 63.7435C336.291 63.7435 337.65 62.3844 337.65 60.7078Z" fill="#101C3D"/>
<g clip-path="url(#clip5_13_158)">
<path d="M135.712 122.657C135.712 113.707 142.967 106.452 151.917 106.452H544.533C553.482 106.452 560.738 113.707 560.738 122.657V375.542C560.738 384.492 553.482 391.748 544.532 391.748H151.917C142.967 391.748 135.712 384.492 135.712 375.542V122.657Z" fill="#101C3D"/>
<rect x="157.177" y="127.018" width="382.096" height="227.132" fill="white"/>
<path d="M560.738 352.745V379.611C560.738 390.55 551.887 399.401 540.949 399.401H155.5C144.563 399.401 135.712 390.55 135.712 379.611V352.745H560.738Z" fill="#C8C8D6"/>
<path d="M257.583 458.712C257.583 453.22 262.035 448.768 267.527 448.768H428.923C434.415 448.768 438.867 453.22 438.867 458.712V463.917H257.583V458.712Z" fill="#AFAFC0"/>
<path d="M417.28 448.779H279.169L282.678 422.487L282.852 421.247L283.176 418.78L283.339 417.541L283.675 415.074L283.721 414.691L283.837 413.834L284.173 411.367L284.335 410.128L286.79 391.758H409.658L411.975 409.086L412.091 409.919L412.473 412.792L412.577 413.626L412.728 414.691L412.971 416.498L413.075 417.332L413.457 420.216L413.573 421.039L417.28 448.779Z" fill="#C8C8D6"/>
<rect opacity="0.116792" x="157.177" y="127.018" width="382.096" height="12.285" fill="#474799"/>
<rect x="180.652" y="167.286" width="103.237" height="74.1476" fill="#C8C8D6"/>
<path d="M274.975 206.01C274.975 217.602 265.581 226.995 253.99 226.995C247.108 226.995 241.004 223.677 237.169 218.571H246.303V203.716H233.127C234.274 193.202 243.176 185.011 253.99 185.011C265.581 185.011 274.975 194.419 274.975 206.01Z" fill="white"/>
<path d="M237.169 218.571H192.372V203.716H233.127C233.045 204.467 233.005 205.231 233.005 206.009C233.005 210.706 234.561 215.062 237.169 218.571Z" fill="white"/>
<rect x="297.574" y="247.28" width="216.829" height="70.6298" fill="#F3F3F6"/>
<rect x="297.574" y="167.359" width="99.907" height="3.63251" fill="#A7A5D8"/>
<rect x="297.574" y="175.945" width="99.907" height="3.63239" fill="#A7A5D8"/>
<rect x="297.574" y="184.531" width="99.907" height="3.63251" fill="#A7A5D8"/>
<rect x="297.574" y="193.117" width="39" height="3.63251" fill="#A7A5D8"/>
<rect x="297.574" y="210.289" width="99.907" height="3.63251" fill="#A7A5D8"/>
<rect x="297.574" y="218.875" width="99.907" height="3.63251" fill="#A7A5D8"/>
<rect x="297.574" y="227.461" width="59.907" height="3.63251" fill="#A7A5D8"/>
<rect x="180.769" y="247.28" width="103.12" height="70.6298" fill="#416FF4"/>
<rect x="189.579" y="311.672" width="6.23829" height="6.23829" fill="white"/>
<rect x="202.789" y="293.811" width="6.23817" height="24.0995" fill="#2BD67B"/>
<rect x="216" y="282.595" width="6.23817" height="35.315" fill="#474799"/>
<rect x="229.21" y="266.39" width="6.23818" height="51.5205" fill="#F7E36D"/>
<rect x="242.42" y="253.693" width="6.23829" height="64.2169" fill="#FFC7BE"/>
<rect x="255.631" y="301.58" width="6.23817" height="16.3301" fill="white"/>
<rect x="268.841" y="280.672" width="6.23829" height="37.2388" fill="#2BD67B"/>
<path d="M513.185 247.122L411.174 233.267L422.978 159.917L524.989 173.771L513.185 247.122Z" fill="#416FF4"/>
<path d="M505.11 237.434L469.237 232.562L494.744 183.145L505.11 237.434Z" fill="white"/>
<path d="M463.671 221.385L427.797 216.513L450.267 189.287L463.671 221.385Z" fill="white"/>
<path d="M166.941 133.16C166.941 134.842 165.577 136.208 163.895 136.208C162.212 136.208 160.848 134.842 160.848 133.16C160.848 131.478 162.212 130.113 163.895 130.113C165.577 130.113 166.941 131.478 166.941 133.16Z" fill="#2BD67B"/>
<path d="M179.382 133.16C179.382 134.842 178.018 136.208 176.336 136.208C174.653 136.208 173.289 134.842 173.289 133.16C173.289 131.478 174.653 130.113 176.336 130.113C178.018 130.113 179.382 131.478 179.382 133.16Z" fill="white"/>
<path d="M191.823 133.16C191.823 134.842 190.459 136.208 188.777 136.208C187.094 136.208 185.73 134.842 185.73 133.16C185.73 131.478 187.094 130.113 188.777 130.113C190.459 130.113 191.823 131.478 191.823 133.16Z" fill="#F7E36D"/>
<rect x="180.652" y="151.705" width="12.2551" height="12.2552" fill="#2BD67B"/>
<rect x="197.447" y="151.705" width="12.2551" height="12.2552" fill="#F7E36D"/>
<rect x="214.241" y="151.705" width="12.2551" height="12.2552" fill="#2BD67B"/>
<path d="M355.794 373.187C355.794 377.442 352.344 380.892 348.088 380.892C343.831 380.892 340.382 377.442 340.382 373.187C340.382 368.931 343.831 365.48 348.088 365.48C352.344 365.48 355.794 368.931 355.794 373.187Z" fill="#B3B3C0"/>
<path opacity="0.104143" d="M412.728 414.691H283.721L283.837 413.834L284.173 411.367L284.335 410.128L286.79 391.758H409.658L411.975 409.086L412.091 409.919L412.473 412.792L412.577 413.626L412.728 414.691Z" fill="#101C3D"/>
</g>
<path d="M336.033 96.4514C331.733 95.3414 325.933 91.5791 322.641 91.8136C319.669 92.0261 319.113 94.6356 319.113 94.6356C319.113 94.6356 316.892 91.7354 313.94 92.4412C312.421 92.8039 311.666 95.5503 311.666 95.5503C311.666 95.5503 309.785 93.3034 307.198 94.0935C305.137 94.7223 304.69 97.3795 304.69 97.3795C304.69 97.3795 301.88 96.0656 299.986 97.3795C296.146 100.045 299.653 118.207 306.885 119.72C310.255 120.426 309.158 116.036 309.158 116.036C309.158 116.036 312.261 121.967 316.023 121.339C319.786 120.713 318.015 115.096 318.015 115.096C318.015 115.096 321.073 120.817 324.908 119.773C328.902 118.686 326.169 113.37 326.169 113.37C326.169 113.37 329.686 116.881 332.439 115.408C336.986 112.978 328.599 104.2 328.775 100.026H336.093L336.033 96.4514Z" fill="#FFC7BE"/>
<path d="M329.61 93.9155C333.772 94.6103 337.639 88.8734 341.715 88.9662C347.23 89.0908 343.048 98.3995 335.444 100.026H329.61V93.9155Z" fill="#FFC7BE"/>
<path d="M304.558 97.7902C304.55 97.7292 304.464 97.7255 304.46 97.7902C304.158 104.045 305.743 111.01 309.188 116.283C309.302 116.456 309.632 116.348 309.544 116.134C307.033 110.019 305.292 104.392 304.558 97.7902Z" fill="#101C3D"/>
<path d="M311.611 95.4698C311.603 95.3978 311.484 95.41 311.481 95.4881C311.205 101.935 313.206 109.73 317.893 115.341C318.053 115.534 318.391 115.545 318.223 115.31C315.388 111.342 312.242 101.416 311.611 95.4698Z" fill="#101C3D"/>
<path d="M326.638 113.673C322.352 108.118 320.277 101.749 319.088 94.9009C319.072 94.8106 318.947 94.8423 318.94 94.9205C318.609 98.4288 319.823 102.715 321.049 105.971C322.224 109.088 323.91 111.666 326.443 113.822C326.542 113.907 326.73 113.792 326.638 113.673Z" fill="#101C3D"/>
<path d="M409.657 41.2062C419.55 40.7373 455.217 58.2057 473.026 78.4142C485.562 92.638 466.389 155.23 462.27 156.361C458.152 157.49 438.886 153.112 435.827 149.721C432.769 146.33 451.181 94.7103 449.768 91.6013C448.356 88.4935 428.224 74.6947 415.873 61.4112C408.759 53.7583 402.686 41.5372 409.657 41.2062Z" fill="#FFC7BE"/>
<path d="M437.655 136.659C436.953 139.485 430.822 158.482 430.693 163.568C430.565 168.655 432.884 182.502 436.769 182.996C440.655 183.491 440.795 179.181 440.795 179.181C440.795 179.181 442.068 185.327 446.023 185.469C449.98 185.609 449.98 178.898 449.98 178.898C449.98 178.898 451.747 185.115 455.703 184.974C459.658 184.833 458.529 178.085 458.529 178.085C458.529 178.085 461.346 183.613 464.556 182.124C468.419 180.335 463.333 166.817 463.191 165.546C463.049 164.275 469.099 155.804 466.64 147.958L469.584 139.113L437.655 136.659Z" fill="#FFC7BE"/>
<path d="M458.526 177.783C455.325 170.373 455.206 166.578 456.436 158.728C456.459 158.574 456.237 158.505 456.198 158.662C454.294 166.239 453.756 171.021 458.174 177.956C458.39 178.296 458.677 178.134 458.526 177.783Z" fill="#101C3D"/>
<path d="M450.192 179.182C447.54 171.195 447.376 167.08 448.059 158.764C448.069 158.646 447.871 158.618 447.85 158.736C446.498 166.837 446.071 171.62 449.768 179.252C449.936 179.597 450.313 179.547 450.192 179.182Z" fill="#101C3D"/>
<path d="M440.83 179.075C438.822 171.158 438.447 166.653 440.145 158.665C440.186 158.477 439.915 158.4 439.856 158.585C437.331 166.562 437.758 172.186 440.584 179.11C440.777 179.583 440.957 179.573 440.83 179.075Z" fill="#101C3D"/>
<path d="M408.337 51.8117C417.522 68.899 447.79 88.8231 448.355 91.2251C448.919 93.627 436.204 121.294 435.78 126.868C435.356 132.441 438.205 134.546 438.205 134.546L469.748 138.167C469.748 138.167 474.495 139.009 478.168 130.321C481.841 121.634 481.983 89.8122 475.766 80.628C469.549 71.4439 448.85 51.3721 414.979 41.2061C406.501 38.6625 402.627 41.1878 408.337 51.8117Z" fill="#2BD67B"/>
<path d="M438.205 134.546L470.397 138.189C470.397 138.189 468.043 146.612 467.947 146.706C467.853 146.8 436.015 143.033 435.544 142.562C435.073 142.09 438.205 134.546 438.205 134.546Z" fill="#2BD67B"/>
<path d="M469.714 137.994C464.844 137.265 444.152 134.062 438.756 134.31C438.565 134.319 438.505 134.612 438.709 134.658C443.701 135.76 464.18 138.189 469.661 138.363C470.072 138.376 470.123 138.055 469.714 137.994Z" fill="#101C3D"/>
<path d="M408.208 42.1881C406.892 47.9726 405.533 55.1492 400.574 58.6002C395.429 62.1781 388.836 61.2647 384.278 57.0042C384.227 56.9565 384.156 57.031 384.202 57.086C388.262 61.9681 394.546 63.4469 400.002 60.3293C405.861 56.981 407.757 48.8751 408.566 42.2406C408.593 42.0172 408.257 41.9756 408.208 42.1881Z" fill="#101C3D"/>
</g>
<g clip-path="url(#clip6_13_158)">
<g clip-path="url(#clip7_13_158)">
<path d="M264.013 483.031C261.221 483.957 181.411 483.725 178.371 481.793C177.216 481.066 176.571 469.44 176.191 455.37C176.11 452.332 176.042 449.195 175.994 446.008C175.647 425.315 175.763 403.352 175.763 403.352H229.152L227.914 446.008L227.649 455.37C227.649 455.37 258.167 469.126 261.272 471.604C264.36 474.081 266.803 482.107 264.013 483.031Z" fill="#FFC7BE"/>
<path d="M264.013 483.031C261.221 483.956 181.41 483.724 178.371 481.792C176.968 480.901 176.307 463.925 175.993 446.007H227.913L227.648 455.369C227.648 455.369 258.167 469.126 261.271 471.603C264.359 474.081 266.803 482.106 264.013 483.031Z" fill="white"/>
<path d="M264.013 483.031C261.221 483.957 181.41 483.725 178.371 481.793C177.216 481.066 176.571 469.44 176.191 455.37H227.649C227.649 455.37 258.167 469.126 261.271 471.604C264.36 474.081 266.803 482.107 264.013 483.031Z" fill="#101C3D"/>
<path d="M262.877 479.835C249.499 479.468 195.507 479.249 182.254 479.903C182.146 479.908 182.146 479.982 182.254 479.987C195.505 480.641 249.499 480.421 262.877 480.055C263.159 480.046 263.159 479.842 262.877 479.835Z" fill="#101C3D"/>
<path d="M256.146 468.718C252.974 468.579 249.868 470.077 248.133 471.961C246.465 473.772 245.036 476.321 245.123 479.096C245.124 479.176 245.272 479.178 245.284 479.096C246.063 473.863 250.839 469.277 256.146 468.885C256.254 468.877 256.255 468.722 256.146 468.718Z" fill="#101C3D"/>
<path d="M232.835 456.715C227.479 456.626 221.266 458.498 217.926 462.867C217.796 463.037 218.038 463.219 218.198 463.137C223.046 460.656 227.653 458.809 232.925 457.374C233.296 457.274 233.218 456.722 232.835 456.715Z" fill="#101C3D"/>
<path d="M236.964 458.339C231.609 458.249 225.395 460.121 222.055 464.491C221.925 464.661 222.169 464.842 222.327 464.761C227.175 462.279 231.783 460.433 237.054 458.999C237.425 458.897 237.347 458.345 236.964 458.339Z" fill="#101C3D"/>
<path d="M241.093 459.963C235.737 459.873 229.524 461.745 226.184 466.115C226.054 466.284 226.297 466.466 226.457 466.384C231.305 463.903 235.911 462.056 241.184 460.621C241.555 460.521 241.477 459.969 241.093 459.963Z" fill="#101C3D"/>
<path d="M245.222 461.586C239.867 461.497 233.653 463.369 230.313 467.738C230.183 467.908 230.426 468.089 230.585 468.008C235.433 465.527 240.04 463.68 245.312 462.245C245.683 462.144 245.605 461.592 245.222 461.586Z" fill="#101C3D"/>
<path d="M185.699 467.205C179.691 467.205 179.681 476.543 185.699 476.543C191.708 476.543 191.718 467.205 185.699 467.205Z" fill="#101C3D"/>
<path fill-rule="evenodd" clip-rule="evenodd" d="M230.859 444.704C232.538 442.374 235.958 440.188 238.662 442.444C241.22 444.577 239.906 448.12 238.213 450.291C235.956 453.186 232.785 455.241 229.689 457.248C228.807 457.821 227.93 458.389 227.082 458.972C226.686 459.244 226.233 458.921 226.121 458.536C226.033 458.542 225.946 458.497 225.954 458.383C226.266 453.768 228.142 448.475 230.859 444.704ZM230.025 455.242C230.705 454.767 231.386 454.293 232.059 453.805C232.124 453.759 232.19 453.711 232.258 453.662C234.521 452.028 238.75 448.975 238.474 445.856C237.957 440.029 232.688 444.488 231.519 446.254C230.768 447.388 230.142 448.636 229.553 449.86C228.607 451.833 227.889 453.879 227.17 455.931C226.953 456.549 226.736 457.169 226.513 457.786C227.655 456.893 228.839 456.068 230.025 455.242Z" fill="#101C3D"/>
<path fill-rule="evenodd" clip-rule="evenodd" d="M223.622 459.574C219.991 460.228 216.271 460.897 212.643 460.33C209.922 459.903 206.541 458.218 206.948 454.913C207.378 451.418 211.368 450.673 214.185 451.224C218.749 452.116 223.736 454.694 227.121 457.847C227.204 457.925 227.172 458.017 227.104 458.073C227.285 458.431 227.176 458.975 226.701 459.049C225.685 459.203 224.657 459.388 223.622 459.574ZM214.764 452.806C212.704 452.318 205.81 452.668 209.419 457.272C211.35 459.734 216.515 459.072 219.286 458.717C219.372 458.706 219.455 458.695 219.536 458.685C220.357 458.58 221.175 458.461 221.992 458.342C223.425 458.133 224.858 457.924 226.305 457.795C225.726 457.5 225.15 457.199 224.574 456.899C222.641 455.891 220.712 454.885 218.666 454.092C217.399 453.601 216.088 453.12 214.764 452.806Z" fill="#101C3D"/>
<path d="M49.6138 458.242C47.2191 456.536 0.27625 391.988 0.0417837 388.396C-0.0546823 387.034 8.94753 379.649 20.0782 371.033C22.4814 369.172 24.9749 367.266 27.5173 365.344C44.0112 352.846 61.8056 339.969 61.8056 339.969L93.3328 383.057L58.1763 407.245L50.4637 412.562C50.4637 412.562 57.3839 445.314 57.2178 449.281C57.0419 453.237 52.0084 459.948 49.6138 458.242Z" fill="#FFC7BE"/>
<path d="M49.6137 458.242C47.219 456.536 0.27615 391.988 0.0416914 388.395C-0.0682024 386.736 13.2422 376.178 27.5172 365.344L58.1763 407.245L50.4636 412.562C50.4636 412.562 57.3838 445.314 57.2177 449.281C57.0418 453.236 52.0083 459.948 49.6137 458.242Z" fill="white"/>
<path d="M49.6138 458.242C47.2191 456.536 0.27625 391.988 0.0417837 388.395C-0.0546823 387.034 8.94753 379.648 20.0782 371.033L50.4637 412.561C50.4637 412.561 57.3839 445.313 57.2178 449.281C57.0419 453.236 52.0084 459.947 49.6138 458.242Z" fill="#101C3D"/>
<path d="M51.5222 455.438C43.9194 444.425 12.2126 400.722 3.85885 390.413C3.79169 390.329 3.73186 390.372 3.79169 390.462C11.0892 401.543 43.1489 444.988 51.3452 455.567C51.5186 455.791 51.6834 455.671 51.5222 455.438Z" fill="#101C3D"/>
<path d="M56.5204 443.441C54.7583 440.798 51.7164 439.177 49.1704 438.888C46.7244 438.612 43.823 438.964 41.6347 440.673C41.5725 440.721 41.6567 440.841 41.73 440.803C46.413 438.341 52.9339 439.488 56.3849 443.54C56.4545 443.62 56.5802 443.531 56.5204 443.441Z" fill="#101C3D"/>
<path d="M52.4396 417.541C49.3501 413.166 44.17 409.257 38.6713 409.142C38.4576 409.137 38.4551 409.44 38.6151 409.521C43.4801 411.968 47.6906 414.596 51.9609 418.003C52.2625 418.243 52.6618 417.854 52.4396 417.541Z" fill="#101C3D"/>
<path d="M53.5675 421.832C50.478 417.457 45.298 413.548 39.7992 413.432C39.5855 413.428 39.5831 413.731 39.743 413.812C44.608 416.259 48.8185 418.887 53.0888 422.294C53.3904 422.534 53.7885 422.145 53.5675 421.832Z" fill="#101C3D"/>
<path d="M54.6961 426.123C51.6067 421.748 46.4266 417.839 40.9278 417.724C40.7141 417.719 40.7105 418.022 40.8704 418.103C45.7366 420.55 49.9459 423.178 54.2174 426.585C54.5178 426.825 54.9171 426.436 54.6961 426.123Z" fill="#101C3D"/>
<path d="M55.8242 430.414C52.7347 426.039 47.5546 422.13 42.0546 422.015C41.8422 422.01 41.8385 422.313 41.9985 422.394C46.8635 424.841 51.0739 427.469 55.3455 430.876C55.6459 431.116 56.0452 430.727 55.8242 430.414Z" fill="#101C3D"/>
<path d="M16.1413 385.695C12.5939 380.846 5.05214 386.352 8.60565 391.208C12.1543 396.058 19.6948 390.552 16.1413 385.695Z" fill="#101C3D"/>
<path fill-rule="evenodd" clip-rule="evenodd" d="M60.968 408.854C63.8389 408.832 67.6232 410.303 67.3997 413.817C67.1885 417.141 63.5532 418.171 60.8007 418.087C57.1311 417.975 53.5991 416.63 50.1506 415.316C49.1683 414.942 48.1929 414.571 47.2229 414.231C46.7687 414.072 46.7626 413.517 47.0068 413.198C46.9494 413.131 46.936 413.034 47.0312 412.973C50.9401 410.499 56.3192 408.887 60.968 408.854ZM51.9787 414.406C52.7604 414.674 53.5426 414.942 54.3312 415.197C54.4083 415.222 54.4877 415.248 54.5693 415.274C57.2257 416.135 62.1821 417.743 64.535 415.679C68.9335 411.822 62.2221 410.202 60.1071 410.303C58.748 410.366 57.3706 410.597 56.0346 410.845C53.8832 411.245 51.8068 411.876 49.7256 412.507C49.0993 412.698 48.4726 412.888 47.8433 413.072C49.241 413.467 50.6091 413.936 51.9787 414.406Z" fill="#101C3D"/>
<path fill-rule="evenodd" clip-rule="evenodd" d="M44.6902 411.791C42.0191 409.247 39.2833 406.641 37.6008 403.38C36.3369 400.933 35.7007 397.208 38.6082 395.584C41.6818 393.867 44.6406 396.649 45.8593 399.247C47.8339 403.457 48.6985 409.004 48.1526 413.598C48.1392 413.711 48.0452 413.74 47.9597 413.718C47.7777 414.075 47.2734 414.309 46.9352 413.968C46.2094 413.238 45.4525 412.517 44.6902 411.791ZM44.9239 400.649C44.1021 398.698 39.7475 393.341 38.1637 398.973C37.3166 401.986 40.9044 405.765 42.8262 407.79C42.8852 407.852 42.9426 407.913 42.9982 407.971C43.5702 408.575 44.1518 409.168 44.7331 409.76C45.745 410.791 46.7559 411.82 47.713 412.908C47.6086 412.265 47.5107 411.622 47.4128 410.979C47.0847 408.825 46.7574 406.675 46.1903 404.557C45.8386 403.244 45.4527 401.903 44.9239 400.649Z" fill="#101C3D"/>
<g clip-path="url(#clip8_13_158)">
<path d="M230.116 440.065H173.849C173.849 440.065 174.419 398.837 173.837 365.39C173.813 364.225 173.803 363.072 173.779 361.918C173.732 359.6 173.697 357.305 173.651 355.057V355.044C173.628 353.892 173.603 352.761 173.58 351.643C173.534 349.289 173.487 347.006 173.429 344.804C173.429 344.478 173.418 344.141 173.406 343.814C173.395 342.975 173.371 342.148 173.359 341.344C173.301 338.968 173.243 336.708 173.172 334.587C173.149 333.422 173.115 332.303 173.08 331.232C172.928 326.199 172.766 322.226 172.59 319.768C171.868 309.318 163.363 262.462 156.316 224.761C156.291 224.715 156.291 224.656 156.28 224.599C156.164 224.028 156.059 223.445 155.954 222.875C155.942 222.828 155.931 222.77 155.919 222.711C155.814 222.152 155.709 221.593 155.616 221.046C155.605 221.022 155.605 220.999 155.605 220.987C155.593 220.93 155.582 220.871 155.57 220.825C155.465 220.242 155.36 219.671 155.244 219.111C155.244 219.054 155.231 218.995 155.221 218.949C150.561 194.111 146.786 174.596 146.786 174.596H206.166C206.166 174.596 224.515 298.623 227.009 319.197C229.501 339.759 230.116 440.065 230.116 440.065Z" fill="#1E1E63"/>
<path d="M227.402 429.946C218.622 429.763 221.143 429.691 212.362 429.606C208.065 429.565 179.825 429.319 175.811 429.984C175.722 429.998 175.722 430.149 175.811 430.163C179.826 430.828 208.065 430.582 212.362 430.541C221.143 430.456 218.622 430.384 227.402 430.201C227.566 430.199 227.566 429.948 227.402 429.946Z" fill="#101C3D"/>
<path d="M195.984 222.916L173.406 343.814C173.395 342.975 173.371 342.148 173.359 341.345C173.301 338.969 173.243 336.708 173.172 334.587C173.149 333.422 173.115 332.304 173.08 331.233C172.928 326.199 172.766 322.227 172.59 319.769C171.868 309.318 163.363 262.462 156.316 224.762C156.291 224.716 156.291 224.657 156.281 224.6C156.164 224.028 156.059 223.446 155.954 222.875C155.942 222.829 155.931 222.77 155.919 222.712C155.814 222.152 155.709 221.593 155.616 221.046L195.984 222.916Z" fill="#101C3D"/>
</g>
<path d="M206.718 174.601C207.676 203.985 195.925 214.318 195.925 214.318C195.925 214.318 171.254 298.131 157.54 323.478C143.828 348.826 64.2406 407.541 64.2406 407.541L28.084 360.381C28.084 360.381 100.209 316.558 106.442 305.961C109.907 300.07 136.816 231.395 135.738 224.965C130.593 194.302 140.713 174.601 140.713 174.601H206.718Z" fill="#1E1E63"/>
<path d="M192.097 222.96C188.689 236.663 187.398 241.892 182.832 255.25C178.279 268.575 173.1 281.717 169.022 295.197C168.988 295.309 169.169 295.391 169.216 295.278C174.675 282.471 179.274 269.239 183.821 256.085C188.491 242.578 189.893 237.168 193.033 223.218C193.17 222.611 192.248 222.351 192.097 222.96Z" fill="#101C3D"/>
<path d="M202.201 217.142C196.621 219.743 191.328 223.161 186.296 226.687C186.1 226.825 186.272 227.137 186.488 227.016C191.868 224.005 197.369 221.086 202.576 217.783C202.985 217.524 202.63 216.943 202.201 217.142Z" fill="#101C3D"/>
<path d="M198.559 176.349C198.524 176.156 198.177 176.147 198.2 176.358C198.949 183.042 199.141 188.97 199.232 195.28C199.276 198.209 198.627 214.492 193.471 213.851C192.609 213.744 192.091 212.96 191.826 211.703C191.506 210.194 191.885 208.259 191.977 206.715C192.183 203.299 192.278 199.885 192.209 196.463C192.082 190.075 191.445 183.743 190.013 177.512C189.965 177.309 189.667 177.355 189.69 177.565C190.617 186.328 191.307 195.098 190.909 203.916C190.717 208.153 189.276 214.653 193.705 214.836C198.219 215.023 199.987 204.203 200.227 201.268C200.898 193.081 200.047 184.406 198.559 176.349Z" fill="#101C3D"/>
<path d="M193.65 214.269C193.308 215.394 193.061 216.552 192.868 217.711C192.719 218.613 192.489 219.592 192.684 220.494C192.722 220.669 192.959 220.662 193.041 220.531C193.553 219.721 193.694 218.671 193.931 217.749C194.205 216.682 194.504 215.618 194.747 214.542C194.909 213.829 193.862 213.575 193.65 214.269Z" fill="#101C3D"/>
<path d="M72.1393 399.811C67.1961 392.552 68.7177 394.565 63.6939 387.362C61.2358 383.837 45.0606 360.687 42.191 357.802C42.1287 357.738 42.0066 357.825 42.0456 357.906C43.8322 361.563 60.4079 384.426 62.9332 387.903C68.0937 395.009 66.6894 392.912 71.9305 399.959C72.0282 400.092 72.2321 399.947 72.1393 399.811Z" fill="#101C3D"/>
</g>
<path d="M182.004 134.297C182.516 144.19 197.427 196.749 214.419 207.782C230.321 218.106 274.514 210.921 283.831 208.088C287.918 206.845 280.457 182.052 276.78 179.344C273.103 176.637 234.389 181.933 231.156 180.835C227.923 179.736 209.676 156.815 200.59 142.982C194.853 134.25 181.644 127.328 182.004 134.297Z" fill="#FFC7BE"/>
<path d="M181.792 132.399C179.928 140.429 190.034 179.301 190.981 179.344C191.927 179.387 218.151 166.027 218.207 164.764C218.265 163.502 205.873 146.855 200.032 140.212C194.192 133.568 183.137 126.603 181.792 132.399Z" fill="#F7E36D"/>
<path d="M214.385 159.746C210.135 161.762 193.649 171.057 189.632 173.523C189.353 173.695 189.601 174.096 189.889 173.958C194.135 171.909 210.746 162.809 214.658 160.21C214.951 160.016 214.696 159.598 214.385 159.746Z" fill="#101C3D"/>
<path d="M171.274 132.428C160.846 139.064 154.041 150.775 151.011 161.45C147.981 172.124 140.063 206.836 141.792 207.807C143.52 208.779 164.69 224.044 183.327 220.55C201.965 217.057 209.527 212.201 211.904 209.486C214.28 206.77 204.346 158.248 202.149 149.514C199.952 140.78 193.148 131.109 191.088 130.843C189.028 130.577 175.248 129.901 171.274 132.428Z" fill="white"/>
<path d="M195.08 135.71C195.05 135.459 194.69 135.446 194.679 135.71C194.536 138.947 194.801 142.584 192.267 145.05C189.472 147.773 185.03 146.226 182.005 144.73C177.288 142.397 173.742 138.396 170.881 134.071C170.774 133.911 170.525 134.053 170.62 134.222C173.889 140 179.117 145.327 185.766 146.933C193.27 148.745 195.816 142.102 195.08 135.71Z" fill="#C8C8D6"/>
<path d="M177.669 227.883C177.284 228.081 169.63 227.044 160.695 223.793C160.485 223.724 160.298 223.665 160.101 223.583C159.88 223.491 159.646 223.409 159.413 223.327C159.251 223.257 159.099 223.199 158.936 223.141C158.749 223.059 158.551 222.99 158.365 222.919C158.294 222.896 158.237 222.873 158.178 222.849C157.84 222.71 157.514 222.57 157.188 222.431C156.99 222.349 156.803 222.267 156.606 222.174C156.21 222.023 155.825 221.848 155.428 221.684C155.243 221.592 155.045 221.499 154.858 221.417C148.847 218.667 142.835 214.905 138.432 209.837C136.44 207.553 143.861 182.005 149.068 165.17C149.126 165.007 149.185 164.821 149.231 164.657C149.452 163.935 149.685 163.236 149.896 162.549C149.954 162.363 150.012 162.187 150.07 162.012C150.093 161.92 150.117 161.827 150.14 161.745C150.35 161.104 150.537 160.487 150.722 159.893C150.792 159.718 150.839 159.543 150.886 159.38C150.897 159.333 150.92 159.275 150.932 159.228C151.165 158.541 151.363 157.889 151.573 157.26V157.248C151.62 157.073 151.677 156.898 151.736 156.724C152.365 154.755 152.878 153.159 153.239 152.075C156.256 142.907 172.741 130.324 172.741 130.324C172.741 130.324 178.392 227.521 177.669 227.883Z" fill="#F7E36D"/>
<path d="M192.572 131.444C192.572 131.444 205.772 220.338 207.02 221.123C208.27 221.908 214.368 213.532 214.776 209.18C215.184 204.828 203.723 149.141 201.238 144.191C198.753 139.242 192.572 131.444 192.572 131.444Z" fill="#F7E36D"/>
<path d="M205.267 158.929C205.128 157.345 204.973 155.765 204.912 154.173C204.909 154.086 204.777 154.084 204.776 154.172C204.754 155.082 204.744 155.994 204.767 156.905C204.169 154.465 203.577 152.023 202.959 149.589C202.926 149.457 202.732 149.514 202.757 149.644C205.737 164.73 209.076 179.777 212.794 194.7C212.861 194.969 213.262 194.857 213.207 194.588C210.802 182.658 208.141 170.761 205.267 158.929Z" fill="#101C3D"/>
<path d="M166.761 148.837L159.413 223.327C159.251 223.258 159.099 223.199 158.936 223.142C158.749 223.06 158.551 222.99 158.365 222.92C158.294 222.896 158.237 222.873 158.178 222.85C157.84 222.711 157.514 222.57 157.188 222.431C156.99 222.349 156.803 222.268 156.606 222.175C156.21 222.023 155.825 221.849 155.428 221.685C155.243 221.592 155.045 221.499 154.858 221.418C148.847 218.668 142.835 214.905 138.432 209.838C136.44 207.554 143.861 182.005 149.068 165.171C149.126 165.007 149.185 164.822 149.231 164.658C149.452 163.935 149.685 163.237 149.896 162.549C149.954 162.364 150.012 162.188 150.07 162.013C150.093 161.92 150.117 161.827 150.14 161.746C150.35 161.105 150.537 160.488 150.722 159.893C150.792 159.719 150.839 159.544 150.886 159.38C150.897 159.334 150.92 159.275 150.932 159.229L166.761 148.837Z" fill="#101C3D"/>
<path d="M189.489 142.335C185.126 143.77 176.896 137.622 173.404 132.365C173.167 132.003 173.404 127.969 173.46 123.051C173.483 120.067 173.438 116.744 173.178 113.714C173.122 113.093 175.337 114.054 175.337 114.054L179.339 114.664L192.575 116.699C192.575 116.699 191.252 123.21 191.738 128.489C191.783 128.93 191.863 129.336 191.976 129.72C191.987 129.777 192.009 129.844 192.021 129.924C192.609 132.252 193.705 140.944 189.489 142.335Z" fill="#FFC7BE"/>
<path d="M191.976 129.719C191.987 129.777 192.009 129.844 192.022 129.923C191.433 130.059 190.79 130.149 190.078 130.194C177.259 131.009 174.264 114.879 174.264 114.879L179.339 114.664L192.575 116.698C192.575 116.698 191.252 123.21 191.738 128.488C191.784 128.929 191.863 129.336 191.976 129.719Z" fill="#101C3D"/>
<path d="M194.542 81.32C194.542 81.32 200.853 84.4986 201.56 91.1978C202.266 97.8969 200.25 104.721 199.653 105.017C199.057 105.314 194.542 81.32 194.542 81.32Z" fill="#101C3D"/>
<path d="M168.957 89.7811C166.612 96.451 169.362 116.117 173.984 120.671C180.687 127.271 192.067 128.352 197.777 120.203C203.313 112.304 199.276 86.7368 194.074 82.5581C186.413 76.4023 172.42 79.929 168.957 89.7811Z" fill="#FFC7BE"/>
<path d="M169.459 109.561C171.845 109.905 173.397 102.644 173.725 99.8937C174.016 97.4697 173.618 89.9878 173.651 89.4688C173.684 88.9486 184.602 94.4328 190.084 91.8574C195.564 89.2808 198.596 83.5268 198.299 81.1089C198.003 78.6923 189.918 73.6991 183.7 74.3524C177.48 75.0033 170.354 84.1508 170.354 84.1508C170.354 84.1508 172.662 80.3201 172.521 80.0563C172.382 79.7938 168.644 82.0101 168.355 84.9641C168.355 84.9641 168.587 81.2762 168.274 81.2567C167.963 81.2372 165.342 84.7748 166.402 86.9789C166.402 86.9789 163.304 90.6436 163.504 94.0969C163.705 97.5515 166.654 109.158 169.459 109.561Z" fill="#101C3D"/>
<path d="M193.977 90.0192C192.356 91.095 190.745 92.2514 188.855 92.8083C186.812 93.4091 184.567 93.2234 182.508 92.7826C180.404 92.3332 178.427 91.5114 176.576 90.4173C174.955 89.4599 173.458 88.2327 171.76 87.4182C171.336 87.2142 170.977 87.837 171.267 88.1533C174.143 91.2831 178.719 93.5568 182.887 94.1955C187.272 94.8671 191.055 93.3199 194.006 90.0607C194.023 90.0412 194.004 90.0009 193.977 90.0192Z" fill="#101C3D"/>
<path d="M172.29 108.299C172.29 108.299 168.012 101.888 165.113 103.4C162.212 104.912 165.334 114.138 168.67 115.465C172.007 116.791 173.294 113.726 173.294 113.726L172.29 108.299Z" fill="#FFC7BE"/>
<path d="M166.072 106.022C166.019 106.016 166.006 106.092 166.053 106.111C168.391 107.119 169.586 109.333 170.405 111.62C169.722 110.732 168.778 110.233 167.59 111.042C167.528 111.084 167.585 111.182 167.651 111.169C168.622 110.984 169.316 111.166 169.952 111.955C170.403 112.513 170.703 113.212 171.02 113.852C171.125 114.066 171.509 113.961 171.434 113.717L171.416 113.661C171.541 110.655 169.295 106.395 166.072 106.022Z" fill="#101C3D"/>
<path d="M173.509 120.554V120.454" stroke="#F7A9A0" stroke-linecap="round" stroke-linejoin="round"/>
<path d="M185.881 103.384C185.864 103.335 185.786 103.461 185.795 103.516C186.016 104.835 186.046 106.384 184.907 106.986C184.871 107.005 184.884 107.071 184.928 107.058C186.364 106.655 186.301 104.599 185.881 103.384Z" fill="#101C3D"/>
<path d="M184.511 102.161C182.357 102.286 182.766 106.584 184.761 106.468C186.726 106.353 186.316 102.055 184.511 102.161Z" fill="#101C3D"/>
<path d="M194.03 102.428C194.035 102.376 194.14 102.481 194.144 102.536C194.228 103.87 194.551 105.386 195.797 105.713C195.835 105.724 195.838 105.791 195.792 105.789C194.304 105.722 193.896 103.707 194.03 102.428Z" fill="#101C3D"/>
<path d="M195.086 100.924C197.212 100.558 197.789 104.837 195.82 105.176C193.881 105.511 193.305 101.232 195.086 100.924Z" fill="#101C3D"/>
<path d="M182.627 100.358C183.198 100.154 183.691 99.8721 184.236 99.612C184.85 99.3202 185.369 99.1505 185.732 98.5399C185.926 98.2126 185.781 97.6717 185.48 97.4531C184.781 96.9439 183.94 97.116 183.186 97.4372C182.369 97.7877 181.828 98.2651 181.415 99.0515C181.015 99.8135 181.873 100.626 182.627 100.358Z" fill="#101C3D"/>
<path d="M196.542 98.6017C195.938 98.5614 195.386 98.4235 194.792 98.3209C194.121 98.2061 193.576 98.1841 193.061 97.6945C192.785 97.4331 192.779 96.8738 193.008 96.5808C193.543 95.9018 194.399 95.8383 195.211 95.9433C196.094 96.0581 196.744 96.372 197.354 97.0167C197.946 97.6407 197.341 98.6555 196.542 98.6017Z" fill="#101C3D"/>
<path d="M187.423 115.022C187.771 115.303 188.13 115.702 188.617 115.697C189.084 115.691 189.608 115.431 190.017 115.226C190.057 115.205 190.103 115.246 190.08 115.288C189.784 115.832 189.087 116.221 188.46 116.172C187.847 116.125 187.499 115.631 187.3 115.094C187.273 115.018 187.372 114.981 187.423 115.022Z" fill="#101C3D"/>
<path d="M186.905 111.295C187.76 112.379 188.916 112.907 190.123 113.024C190.662 113.08 191.22 113.045 191.761 112.944C191.868 112.93 191.974 112.908 192.069 112.878C192.166 112.857 192.252 112.837 192.356 112.806C192.51 112.768 192.583 112.631 192.595 112.482L192.594 112.472C192.588 112.423 192.584 112.384 192.569 112.337L192.567 112.327L192.554 112.211C192.484 111.183 192.236 109.633 192.236 109.633C192.628 109.784 194.62 110.462 194.539 109.93C193.852 105.52 193.088 100.619 191.473 96.3764C191.427 96.2335 191.206 96.2885 191.233 96.4338C191.726 100.697 192.965 104.844 193.528 109.119C192.897 108.946 191.862 108.611 191.327 108.673C191.185 108.729 191.859 111.659 191.854 112.123C191.854 112.123 191.855 112.144 191.849 112.173C190.148 112.558 188.8 112.161 187.019 111.163C186.911 111.097 186.815 111.197 186.905 111.295Z" fill="#101C3D"/>
<rect x="75.5051" y="234.67" width="218.276" height="71.1013" transform="rotate(-27.6112 75.5051 234.67)" fill="#A7A5D8"/>
<path d="M143.696 234.266C146.98 240.543 147.014 247.678 144.385 253.703C142.406 258.259 138.932 262.202 134.168 264.694C129.403 267.186 124.183 267.79 119.312 266.817C112.864 265.539 107.022 261.441 103.74 255.165C97.965 244.123 102.218 230.494 113.26 224.719C124.301 218.945 137.922 223.225 143.696 234.266Z" fill="#C8C8D6"/>
<path d="M128.262 235.411C130.397 239.492 128.819 244.531 124.738 246.666C120.657 248.8 115.617 247.223 113.483 243.142C111.348 239.059 112.926 234.021 117.007 231.886C121.089 229.752 126.128 231.329 128.262 235.411Z" fill="white"/>
<path d="M143.919 252.685C144.092 253.016 144.247 253.354 144.385 253.703C142.406 258.259 138.932 262.202 134.168 264.694C129.403 267.186 124.183 267.79 119.312 266.817C119.104 266.505 118.915 266.184 118.741 265.853C115.104 258.898 117.782 250.301 124.737 246.663C131.691 243.025 140.281 245.729 143.919 252.685Z" fill="white"/>
<rect x="153.694" y="222.704" width="122.292" height="2.02435" transform="rotate(-27.6112 153.694 222.704)" fill="#474799"/>
<rect x="156.723" y="228.493" width="42.7481" height="2.02427" transform="rotate(-27.6112 156.723 228.493)" fill="white"/>
<rect x="159.75" y="234.282" width="122.292" height="2.02438" transform="rotate(-27.6112 159.75 234.282)" fill="white"/>
<rect x="162.778" y="240.071" width="122.292" height="2.0243" transform="rotate(-27.6112 162.778 240.071)" fill="white"/>
<rect x="165.807" y="245.861" width="74.761" height="2.02427" transform="rotate(-27.6112 165.807 245.861)" fill="white"/>
<path d="M150.655 205.16L153.722 207.398L157.305 206.141L156.124 209.749L158.427 212.768L154.63 212.76L152.471 215.884L151.305 212.27L147.667 211.181L150.744 208.956L150.655 205.16Z" fill="#F7E36D"/>
<path d="M164.244 198.052L167.311 200.29L170.894 199.033L169.713 202.641L172.016 205.66L168.219 205.652L166.06 208.776L164.894 205.162L161.256 204.074L164.333 201.848L164.244 198.052Z" fill="#F7E36D"/>
<path d="M177.833 190.944L180.9 193.182L184.483 191.924L183.302 195.533L185.606 198.552L181.808 198.544L179.649 201.668L178.483 198.054L174.845 196.965L177.922 194.74L177.833 190.944Z" fill="#F7E36D"/>
<path d="M191.422 183.837L194.489 186.075L198.072 184.818L196.891 188.426L199.194 191.445L195.397 191.437L193.238 194.561L192.072 190.947L188.434 189.858L191.511 187.633L191.422 183.837Z" fill="#F7E36D"/>
<path d="M205.011 176.729L208.078 178.967L211.661 177.71L210.48 181.318L212.784 184.337L208.986 184.329L206.827 187.453L205.661 183.839L202.023 182.75L205.1 180.525L205.011 176.729Z" fill="#F7E36D"/>
<path d="M285.45 157.538C288.455 160.807 294.509 164.147 295.855 167.161C297.069 169.883 295.029 171.602 295.029 171.602C295.029 171.602 298.635 172.193 299.405 175.13C299.802 176.641 297.735 178.601 297.735 178.601C297.735 178.601 300.604 179.2 301.128 181.854C301.545 183.967 299.413 185.616 299.413 185.616C299.413 185.616 301.897 187.472 301.631 189.763C301.092 194.407 283.424 199.88 278.678 194.216C276.466 191.578 280.854 190.475 280.854 190.475C280.854 190.475 274.161 190.536 272.94 186.921C271.718 183.308 277.506 182.22 277.506 182.22C277.506 182.22 271.019 182.222 270.132 178.348C269.206 174.314 275.182 174.218 275.182 174.218C275.182 174.218 270.428 172.771 270.427 169.65C270.426 164.494 282.123 167.75 285.721 165.625L282.27 159.172L285.45 157.538Z" fill="#FFC7BE"/>
<path d="M290.715 162.008C288.139 158.665 291.373 152.549 289.369 148.998C286.658 144.195 280.423 152.272 282.574 159.744L285.327 164.89L290.715 162.008Z" fill="#FFC7BE"/>
<path d="M299.114 185.926C299.17 185.903 299.214 185.978 299.159 186.011C293.786 189.228 286.898 191.114 280.621 190.565C280.416 190.547 280.356 190.203 280.585 190.18C287.163 189.511 292.946 188.392 299.114 185.926Z" fill="#101C3D"/>
<path d="M297.833 178.613C297.899 178.586 297.945 178.696 297.878 178.735C292.324 182.02 284.505 183.932 277.347 182.446C277.101 182.394 276.932 182.103 277.219 182.139C282.054 182.767 292.292 180.861 297.833 178.613Z" fill="#101C3D"/>
<path d="M274.694 173.946C281.614 175.106 288.208 173.93 294.808 171.75C294.895 171.721 294.925 171.846 294.861 171.89C291.923 173.836 287.571 174.788 284.122 175.242C280.818 175.675 277.75 175.404 274.653 174.188C274.534 174.142 274.546 173.922 274.694 173.946Z" fill="#101C3D"/>
<path d="M164.225 134.987C155.836 140.253 115.978 175.701 114.622 195.916C113.354 214.832 133.814 240.084 139.387 248.147C141.815 251.661 166.124 236.898 166.697 232.368C167.27 227.837 146.925 200.76 146.31 197.402C145.694 194.042 158.042 170.123 165.696 155.448C170.527 146.184 170.135 131.277 164.225 134.987Z" fill="#FFC7BE"/>
<path d="M179.149 255.649C182.409 259.879 190.198 262.751 187.905 265.993C185.862 268.882 180.658 266.369 180.658 266.369C180.658 266.369 185.604 271.096 182.521 273.579C179.438 276.063 174.3 272.142 174.3 272.142C174.3 272.142 178.595 275.892 175.342 278.148C172.09 280.405 167.115 277.869 167.115 277.869C167.115 277.869 167.606 279.785 164.592 280.345C160.279 281.149 153.158 274.89 150.215 270.74C147.272 266.59 139.561 249.218 138.432 246.536L164.907 227.415C164.907 227.415 173.548 232.38 177.622 235.432C181.695 238.485 192.324 252.268 189.082 255.136C185.841 258.004 178.501 248.144 176.176 246.123C173.851 244.102 172.986 244.295 173.327 246.021C173.549 247.153 177.706 253.777 179.149 255.649Z" fill="#FFC7BE"/>
<path d="M180.474 266.129C173.473 262.113 171.106 259.145 167.388 252.123C167.316 251.985 167.095 252.062 167.158 252.213C170.173 259.421 172.606 263.572 180.298 266.479C180.674 266.62 180.808 266.32 180.474 266.129Z" fill="#101C3D"/>
<path d="M174.639 272.24C167.732 267.434 165.136 264.238 160.701 257.169C160.638 257.069 160.462 257.165 160.517 257.272C164.287 264.569 166.81 268.655 174.342 272.552C174.683 272.728 174.955 272.46 174.639 272.24Z" fill="#101C3D"/>
<path d="M167.08 277.763C160.729 272.626 157.731 269.244 154.307 261.83C154.225 261.655 153.962 261.755 154.027 261.94C156.782 269.839 160.493 274.087 166.903 277.939C167.34 278.201 167.479 278.085 167.08 277.763Z" fill="#101C3D"/>
<path d="M165.78 133.878C157.859 136.161 128.837 163.926 129.26 164.775C129.684 165.622 154.128 182.012 155.258 181.447C156.389 180.881 164.888 161.948 167.845 153.612C170.801 145.276 171.497 132.228 165.78 133.878Z" fill="#F7E36D"/>
<path d="M157.779 175.665C153.947 172.935 137.798 163.066 133.688 160.761C133.401 160.6 133.172 161.011 133.434 161.195C137.292 163.905 153.331 173.978 157.507 176.129C157.82 176.29 158.059 175.864 157.779 175.665Z" fill="#101C3D"/>
</g>
</g>
</g>
<defs>
<clipPath id="clip0_13_158">
<rect width="686" height="488" fill="white"/>
</clipPath>
<clipPath id="clip1_13_158">
<rect width="598" height="410" fill="white" transform="translate(87.041 35.192)"/>
</clipPath>
<clipPath id="clip2_13_158">
<rect width="71" height="39" fill="white" transform="translate(321.041 268.793)"/>
</clipPath>
<clipPath id="clip3_13_158">
<rect width="562" height="487" fill="white" transform="translate(0.0410156 0.192017)"/>
</clipPath>
<clipPath id="clip4_13_158">
<rect width="426" height="465" fill="white" transform="translate(135.712 0.192017)"/>
</clipPath>
<clipPath id="clip5_13_158">
<rect width="426" height="358" fill="white" transform="translate(135.712 106.452)"/>
</clipPath>
<clipPath id="clip6_13_158">
<rect width="303" height="412" fill="white" transform="translate(0.0410156 74.294)"/>
</clipPath>
<clipPath id="clip7_13_158">
<rect width="267" height="311" fill="white" transform="translate(0.0410156 174.596)"/>
</clipPath>
<clipPath id="clip8_13_158">
<rect width="84" height="266" fill="white" transform="translate(146.786 174.596)"/>
</clipPath>
</defs>
</svg>
